# xmcd
#
# Track frame offsets: 
#        150
#        14076
#        29836
#        43046
#        59523
#        61798
#        77119
#        93939
#        108354
#        126945
#        129104
#        144120
#        158084
#        173548
#        187493
#        204828
#
# Disc length: 2955 seconds
#
# Revision: 0
# Processed by: cddbd v1.5.2PL0 Copyright (c) Steve Scherf et al.
# Submitted via: ExactAudioCopyFreeDBPlugin 1.0
#
DISCID=d80b8910
DTITLE=Fler - Im Bus ganz hinten
DYEAR=2011
DGENRE=Hip-Hop
TTITLE0=Du bist out
TTITLE1=Mein Lifestyle feat. Moe Mitchell
TTITLE2=Dirty white boy
TTITLE3=Spiegelbild
TTITLE4=BTM Skit
TTITLE5=Kein Kommentar
TTITLE6=Immer noch kein Fan davon feat. Silla, MoTrip
TTITLE7=Zeichen feat. Moe Mitchell
TTITLE8=Um uns rum feat. G-Hot, Nicone
TTITLE9=Chinatown Skit
TTITLE10=Teer in meiner Lunge
TTITLE11=Wir machen einen drauf
TTITLE12=Wenn ich kein Rapper wär
TTITLE13=Freunde werden Feinde
TTITLE14=Im Bus ganz hinten
TTITLE15=Vollmond feat. G-Hot
EXTD=
EXTT0=
EXTT1=
EXTT2=
EXTT3=
EXTT4=
EXTT5=
EXTT6=
EXTT7=
EXTT8=
EXTT9=
EXTT10=
EXTT11=
EXTT12=
EXTT13=
EXTT14=
EXTT15=
PLAYORDER=
